<svg id="Layer_1_copy" data-name="Layer 1 copy" xmlns="http://www.w3.org/2000/svg" viewBox="0 0 294.21 298.3"><defs><style>.cls-1,.cls-3{fill:#fff;}.cls-1,.cls-2{fill-rule:evenodd;}.cls-2,.cls-4{fill:#231f20;}</style></defs><title>eccms-logo2</title><path class="cls-1" d="M166.3,26.11a125.11,125.11,0,0,0-10.82-18.7c-.54.91-8.43,11.36-12.21,23.07-3.63,11.22-5.79,25.92,4.48,32.26.41-1.15,8.35-18.81,8.35-18.81.22.36,9.11,18,9.76,18.76C174.84,50.38,171.06,36,166.3,26.11Z" transform="translate(-11.11 -7.41)"/><path class="cls-1" d="M242.44,136.4a105.63,105.63,0,0,0,15.88-9.19c-.78-.46-9.65-7.15-19.59-10.37-9.53-3.08-22-4.91-27.4,3.81,1,.35,16,7.09,16,7.09-.3.18-15.29,7.74-15.92,8.29C221.83,143.65,234,140.44,242.44,136.4Z" transform="translate(-11.11 -7.41)"/><path class="cls-1" d="M69.13,118.54a105.63,105.63,0,0,0-15.88,9.19c.77.46,9.65,7.15,19.59,10.37,9.53,3.07,22,4.91,27.39-3.81-1-.35-16-7.09-16-7.09.3-.18,15.29-7.74,15.93-8.29C89.73,111.29,77.53,114.5,69.13,118.54Z" transform="translate(-11.11 -7.41)"/><path class="cls-1" d="M267.18,80.11a89.78,89.78,0,0,0,4-15.07c-.74.19-10.1,1.5-18,5.54C245.61,74.46,237,80.86,239,89.34c.8-.38,13.87-5.34,13.86-5.34-.07.29-4.54,13.84-4.59,14.56C259.15,96.85,264.56,87.59,267.18,80.11Z" transform="translate(-11.11 -7.41)"/><path class="cls-1" d="M55.44,69.58a89.78,89.78,0,0,0-15.07-4c.18.74,1.5,10.1,5.54,18,3.88,7.58,10.27,16.19,18.76,14.19-.38-.8-5.35-13.87-5.34-13.86.29.06,13.84,4.53,14.55,4.59C72.18,77.61,62.92,72.2,55.44,69.58Z" transform="translate(-11.11 -7.41)"/><path class="cls-1" d="M90.13,154.81a79,79,0,0,0-5.39,12.54c.67-.07,8.94,0,16.29-2.52,7.06-2.4,15.32-6.85,14.65-14.45-.73.23-12.68,2.87-12.67,2.87.1-.24,5.68-11.41,5.81-12C99.2,141.33,93.34,148.67,90.13,154.81Z" transform="translate(-11.11 -7.41)"/><path class="cls-1" d="M235.52,62.15c4.66-13.28,6.82-24.55,6.87-25.76-1.27.33-17.26,2.57-30.78,9.48-13,6.63-27.66,17.56-24.24,32.06,1.37-.64,23.7-9.13,23.7-9.13-.13.5-7.76,23.67-7.85,24.89C221.79,90.77,231,74.94,235.52,62.15Z" transform="translate(-11.11 -7.41)"/><path class="cls-1" d="M94.93,44.15c-13.28-4.66-24.55-6.82-25.76-6.87.33,1.27,2.57,17.26,9.48,30.78,6.62,13,17.56,27.66,32.06,24.24-.64-1.37-9.13-23.7-9.13-23.7.5.13,23.67,7.76,24.89,7.85C123.55,57.88,107.72,48.63,94.93,44.15Z" transform="translate(-11.11 -7.41)"/><path class="cls-2" d="M150.19,132.31c-11.63-19.8-31.09-24.4-47.33-29.51-2-.63-6.41-1.06-8.07-2.44,39.23,32.88,55.34,49.41,65.38,92.87C161.9,200.71,164.39,156.52,150.19,132.31Z" transform="translate(-11.11 -7.41)"/><path class="cls-2" d="M174.93,124.5c8.79-15,23.48-18.44,35.75-22.3,1.51-.48,4.84-.8,6.1-1.84-29.88,25-41.84,37.51-49.39,70.15C166.08,176.15,164.2,142.78,174.93,124.5Z" transform="translate(-11.11 -7.41)"/><path class="cls-2" d="M168.91,100.35a13.13,13.13,0,1,1-13.13-13.12A13.13,13.13,0,0,1,168.91,100.35Z" transform="translate(-11.11 -7.41)"/><path class="cls-3" d="M56.65,242.36H29.59V266H60.7v4.13h-36V212.25H60.5v4.13H29.59v21.85H56.65Z" transform="translate(-11.11 -7.41)"/><path class="cls-3" d="M112,252.05q-1,9.15-6.54,14t-14.75,4.84a20.45,20.45,0,0,1-11.39-3.21,21.06,21.06,0,0,1-7.64-9.12,32.39,32.39,0,0,1-2.75-13.49v-7.51a32.62,32.62,0,0,1,2.71-13.66,20.78,20.78,0,0,1,7.76-9.2A21.19,21.19,0,0,1,91,211.45q9.3,0,14.68,5T112,230.32H107q-1.83-14.73-16-14.74a15.18,15.18,0,0,0-12.53,5.89q-4.67,5.88-4.67,16.26v7.08q0,10,4.55,16a14.64,14.64,0,0,0,12.3,6q7.66,0,11.56-3.67t4.8-11Z" transform="translate(-11.11 -7.41)"/><path class="cls-3" d="M164.79,252.05q-1,9.15-6.54,14t-14.76,4.84a20.44,20.44,0,0,1-11.38-3.21,21.08,21.08,0,0,1-7.65-9.12,32.55,32.55,0,0,1-2.74-13.49v-7.51a32.78,32.78,0,0,1,2.7-13.66,20.73,20.73,0,0,1,7.77-9.2,21.17,21.17,0,0,1,11.66-3.24q9.3,0,14.68,5t6.26,13.86h-4.93q-1.83-14.73-16-14.74a15.18,15.18,0,0,0-12.53,5.89q-4.68,5.88-4.67,16.26v7.08q0,10,4.55,16a14.63,14.63,0,0,0,12.29,6q7.66,0,11.56-3.67t4.81-11Z" transform="translate(-11.11 -7.41)"/><path class="cls-4" d="M188.27,212.25,205,256.58l16.65-44.33h13v57.84h-10V251l1-25.5-17.08,44.57H201.3l-17.05-44.53,1,25.46v19.07h-10V212.25Z" transform="translate(-11.11 -7.41)"/><path class="cls-4" d="M276.7,255.19a7,7,0,0,0-2.68-5.88q-2.68-2.06-9.68-4.17a46.12,46.12,0,0,1-11.12-4.69q-7.91-5-7.91-12.95A14.11,14.11,0,0,1,251,216q5.7-4.53,14.79-4.53a24.9,24.9,0,0,1,10.77,2.23A17.65,17.65,0,0,1,284,220a16.28,16.28,0,0,1,2.7,9.12h-10a9.07,9.07,0,0,0-2.84-7.09q-2.83-2.56-8.13-2.56-4.92,0-7.64,2.1a7,7,0,0,0-2.72,5.88,6.36,6.36,0,0,0,2.94,5.31q2.94,2.11,9.69,4.13a44.73,44.73,0,0,1,10.85,4.57,17.31,17.31,0,0,1,6,5.88,15.21,15.21,0,0,1,1.91,7.76,13.77,13.77,0,0,1-5.54,11.5q-5.55,4.27-15,4.27a28.26,28.26,0,0,1-11.54-2.32,19.33,19.33,0,0,1-8.18-6.42,15.93,15.93,0,0,1-2.92-9.53h10.05a9.34,9.34,0,0,0,3.26,7.63q3.26,2.7,9.33,2.7,5.25,0,7.89-2.13A6.85,6.85,0,0,0,276.7,255.19Z" transform="translate(-11.11 -7.41)"/><path class="cls-3" d="M12.43,296.44v6.37H11.11V287.17h5.33a5.61,5.61,0,0,1,3.85,1.25,4.33,4.33,0,0,1,1.41,3.42,4.28,4.28,0,0,1-1.36,3.4,5.74,5.74,0,0,1-3.93,1.2Zm0-1.12h4a4.22,4.22,0,0,0,2.93-.91,3.24,3.24,0,0,0,1-2.55,3.4,3.4,0,0,0-1-2.59,4,4,0,0,0-2.85-1h-4.1Z" transform="translate(-11.11 -7.41)"/><path class="cls-3" d="M29.73,292.28a4.79,4.79,0,0,0-.87-.07,3.15,3.15,0,0,0-2,.67,3.68,3.68,0,0,0-1.18,1.95v8H24.36V291.19h1.25l0,1.84A3.42,3.42,0,0,1,28.91,291a2.18,2.18,0,0,1,.85.14Z" transform="translate(-11.11 -7.41)"/><path class="cls-3" d="M30.83,296.83a6.87,6.87,0,0,1,.65-3,5,5,0,0,1,1.84-2.09A4.93,4.93,0,0,1,36,291a4.8,4.8,0,0,1,3.76,1.63,6.25,6.25,0,0,1,1.44,4.31v.27a7,7,0,0,1-.65,3,4.8,4.8,0,0,1-1.83,2.07A5,5,0,0,1,36,303a4.78,4.78,0,0,1-3.75-1.62,6.3,6.3,0,0,1-1.45-4.32Zm1.29.35a5.26,5.26,0,0,0,1.08,3.42,3.65,3.65,0,0,0,5.65,0,5.45,5.45,0,0,0,1.08-3.53v-.24a5.91,5.91,0,0,0-.49-2.44,3.89,3.89,0,0,0-1.39-1.71,3.48,3.48,0,0,0-2-.61,3.43,3.43,0,0,0-2.8,1.35,5.39,5.39,0,0,0-1.09,3.52Z" transform="translate(-11.11 -7.41)"/><path class="cls-3" d="M45.86,288.21v3h2.41v1.05H45.86V300a2.42,2.42,0,0,0,.35,1.44,1.34,1.34,0,0,0,1.17.48,8.51,8.51,0,0,0,1-.11l0,1a4.16,4.16,0,0,1-1.37.18,2.29,2.29,0,0,1-1.92-.76,3.56,3.56,0,0,1-.61-2.26v-7.76H42.44v-1.05h2.13v-3Z" transform="translate(-11.11 -7.41)"/><path class="cls-3" d="M55.43,303a5,5,0,0,1-2.68-.73,4.88,4.88,0,0,1-1.86-2,6.41,6.41,0,0,1-.67-2.93v-.46a6.9,6.9,0,0,1,.65-3,5.27,5.27,0,0,1,1.81-2.11A4.52,4.52,0,0,1,55.2,291a4.16,4.16,0,0,1,3.35,1.45,5.84,5.84,0,0,1,1.25,3.94v.72H51.5v.25a4.83,4.83,0,0,0,1.14,3.29,3.58,3.58,0,0,0,2.85,1.32,4.2,4.2,0,0,0,1.82-.38,4.08,4.08,0,0,0,1.43-1.2l.81.61A4.7,4.7,0,0,1,55.43,303Zm-.23-10.95a3.23,3.23,0,0,0-2.45,1.06,4.9,4.9,0,0,0-1.2,2.86h7v-.14a4.29,4.29,0,0,0-1-2.73A3,3,0,0,0,55.2,292.07Z" transform="translate(-11.11 -7.41)"/><path class="cls-3" d="M66.6,301.94a3.39,3.39,0,0,0,2.25-.76,2.67,2.67,0,0,0,1-2h1.23a3.56,3.56,0,0,1-.66,1.94,4.12,4.12,0,0,1-1.63,1.37,4.89,4.89,0,0,1-2.17.49A4.46,4.46,0,0,1,63,301.43a6.4,6.4,0,0,1-1.34-4.27v-.39a7.3,7.3,0,0,1,.6-3,4.63,4.63,0,0,1,1.73-2,4.75,4.75,0,0,1,2.62-.72,4.49,4.49,0,0,1,3.16,1.14,4.15,4.15,0,0,1,1.32,3H69.83a3.11,3.11,0,0,0-3.25-3,3.22,3.22,0,0,0-2.7,1.25,5.72,5.72,0,0,0-1,3.53v.37a5.55,5.55,0,0,0,1,3.47A3.24,3.24,0,0,0,66.6,301.94Z" transform="translate(-11.11 -7.41)"/><path class="cls-3" d="M75.63,288.21v3H78v1.05H75.63V300a2.42,2.42,0,0,0,.35,1.44,1.34,1.34,0,0,0,1.16.48,8.43,8.43,0,0,0,1-.11l0,1a4.27,4.27,0,0,1-1.38.18,2.29,2.29,0,0,1-1.92-.76,3.63,3.63,0,0,1-.6-2.26v-7.76H72.2v-1.05h2.14v-3Z" transform="translate(-11.11 -7.41)"/><path class="cls-3" d="M92.72,305.71H91.64V287.17h1.08Z" transform="translate(-11.11 -7.41)"/><path class="cls-3" d="M108.58,296.44v6.37h-1.33V287.17h5.33a5.61,5.61,0,0,1,3.85,1.25,4.88,4.88,0,0,1,.06,6.82,5.78,5.78,0,0,1-3.94,1.2Zm0-1.12h4a4.26,4.26,0,0,0,2.94-.91,3.27,3.27,0,0,0,1-2.55,3.4,3.4,0,0,0-1-2.59,4,4,0,0,0-2.85-1h-4.09Z" transform="translate(-11.11 -7.41)"/><path class="cls-3" d="M125.87,292.28a4.79,4.79,0,0,0-.87-.07,3.15,3.15,0,0,0-2,.67,3.68,3.68,0,0,0-1.18,1.95v8H120.5V291.19h1.26l0,1.84a3.42,3.42,0,0,1,3.27-2.06,2.18,2.18,0,0,1,.85.14Z" transform="translate(-11.11 -7.41)"/><path class="cls-3" d="M132.2,303a5,5,0,0,1-2.68-.73,5,5,0,0,1-1.87-2,6.41,6.41,0,0,1-.66-2.93v-.46a6.76,6.76,0,0,1,.65-3,5.12,5.12,0,0,1,1.81-2.11A4.47,4.47,0,0,1,132,291a4.19,4.19,0,0,1,3.36,1.45,5.83,5.83,0,0,1,1.24,3.94v.72h-8.29v.25a4.82,4.82,0,0,0,1.13,3.29,3.6,3.6,0,0,0,2.85,1.32,4.17,4.17,0,0,0,1.82-.38,4,4,0,0,0,1.44-1.2l.8.61A4.67,4.67,0,0,1,132.2,303ZM132,292.07a3.19,3.19,0,0,0-2.44,1.06,4.85,4.85,0,0,0-1.21,2.86h7v-.14a4.24,4.24,0,0,0-1-2.73A3,3,0,0,0,132,292.07Z" transform="translate(-11.11 -7.41)"/><path class="cls-3" d="M146,299.86a1.82,1.82,0,0,0-.77-1.54,5.86,5.86,0,0,0-2.31-.91,10.7,10.7,0,0,1-2.4-.75,3.2,3.2,0,0,1-1.27-1,2.6,2.6,0,0,1-.41-1.48,2.75,2.75,0,0,1,1.15-2.27A4.6,4.6,0,0,1,143,291a4.77,4.77,0,0,1,3.12,1,3.08,3.08,0,0,1,1.18,2.51H146a2.1,2.1,0,0,0-.86-1.7,3.33,3.33,0,0,0-2.15-.67,3.44,3.44,0,0,0-2,.56,1.75,1.75,0,0,0-.76,1.47,1.58,1.58,0,0,0,.64,1.35,6.58,6.58,0,0,0,2.33.87,11.1,11.1,0,0,1,2.53.85,3.22,3.22,0,0,1,1.25,1.09,2.69,2.69,0,0,1,.41,1.53,2.75,2.75,0,0,1-1.19,2.35A5,5,0,0,1,143,303a5.18,5.18,0,0,1-3.3-1,3,3,0,0,1-1.26-2.48h1.29a2.24,2.24,0,0,0,1,1.75,3.89,3.89,0,0,0,2.32.63,3.71,3.71,0,0,0,2.17-.59A1.76,1.76,0,0,0,146,299.86Z" transform="translate(-11.11 -7.41)"/><path class="cls-3" d="M154.7,303a5,5,0,0,1-2.68-.73,4.88,4.88,0,0,1-1.86-2,6.29,6.29,0,0,1-.67-2.93v-.46a6.9,6.9,0,0,1,.65-3,5.27,5.27,0,0,1,1.81-2.11,4.5,4.5,0,0,1,2.52-.77,4.16,4.16,0,0,1,3.35,1.45,5.83,5.83,0,0,1,1.24,3.94v.72h-8.29v.25a4.87,4.87,0,0,0,1.13,3.29,3.62,3.62,0,0,0,2.86,1.32,4.23,4.23,0,0,0,1.82-.38,4.08,4.08,0,0,0,1.43-1.2l.81.61A4.7,4.7,0,0,1,154.7,303Zm-.23-10.95a3.21,3.21,0,0,0-2.45,1.06,5,5,0,0,0-1.21,2.86h7v-.14a4.29,4.29,0,0,0-1-2.73A3,3,0,0,0,154.47,292.07Z" transform="translate(-11.11 -7.41)"/><path class="cls-3" d="M166.94,292.28a4.79,4.79,0,0,0-.87-.07,3.15,3.15,0,0,0-2,.67,3.68,3.68,0,0,0-1.18,1.95v8h-1.28V291.19h1.25l0,1.84a3.42,3.42,0,0,1,3.27-2.06,2.18,2.18,0,0,1,.85.14Z" transform="translate(-11.11 -7.41)"/><path class="cls-3" d="M172.78,301l3.54-9.85h1.32l-4.34,11.62h-1l-4.37-11.62h1.33Z" transform="translate(-11.11 -7.41)"/><path class="cls-3" d="M184.1,303a5,5,0,0,1-2.68-.73,4.94,4.94,0,0,1-1.86-2,6.41,6.41,0,0,1-.67-2.93v-.46a6.9,6.9,0,0,1,.65-3,5.27,5.27,0,0,1,1.81-2.11,4.52,4.52,0,0,1,2.52-.77,4.16,4.16,0,0,1,3.35,1.45,5.84,5.84,0,0,1,1.25,3.94v.72h-8.3v.25a4.83,4.83,0,0,0,1.14,3.29,3.58,3.58,0,0,0,2.85,1.32,4.2,4.2,0,0,0,1.82-.38,4,4,0,0,0,1.43-1.2l.81.61A4.7,4.7,0,0,1,184.1,303Zm-.23-10.95a3.23,3.23,0,0,0-2.45,1.06,4.9,4.9,0,0,0-1.2,2.86h7v-.14a4.29,4.29,0,0,0-1-2.73A3,3,0,0,0,183.87,292.07Z" transform="translate(-11.11 -7.41)"/><path class="cls-3" d="M203,305.71H201.9V287.17H203Z" transform="translate(-11.11 -7.41)"/><path class="cls-3" d="M228.6,297.93a5.59,5.59,0,0,1-1.77,3.78,5.82,5.82,0,0,1-4,1.31,5.52,5.52,0,0,1-3.08-.87,5.71,5.71,0,0,1-2.07-2.46A8.94,8.94,0,0,1,217,296v-2a8.93,8.93,0,0,1,.73-3.69,5.61,5.61,0,0,1,2.1-2.49,5.8,5.8,0,0,1,3.16-.88,5.23,5.23,0,0,1,5.66,5.11h-1.33c-.33-2.66-1.78-4-4.33-4a4.1,4.1,0,0,0-3.39,1.59,6.92,6.92,0,0,0-1.26,4.4V296a7,7,0,0,0,1.23,4.33,4,4,0,0,0,3.32,1.61,4.39,4.39,0,0,0,3.13-1,4.78,4.78,0,0,0,1.3-3Z" transform="translate(-11.11 -7.41)"/><path class="cls-3" d="M230.8,296.83a6.87,6.87,0,0,1,.65-3A4.9,4.9,0,0,1,236,291a4.81,4.81,0,0,1,3.76,1.63,6.25,6.25,0,0,1,1.44,4.31v.27a7,7,0,0,1-.65,3,4.93,4.93,0,0,1-1.83,2.07,5,5,0,0,1-2.7.73,4.78,4.78,0,0,1-3.75-1.62,6.25,6.25,0,0,1-1.45-4.32Zm1.29.35a5.26,5.26,0,0,0,1.08,3.42,3.65,3.65,0,0,0,5.65,0,5.45,5.45,0,0,0,1.08-3.53v-.24a5.91,5.91,0,0,0-.5-2.44,3.87,3.87,0,0,0-1.38-1.71,3.53,3.53,0,0,0-2-.61,3.45,3.45,0,0,0-2.81,1.35,5.44,5.44,0,0,0-1.08,3.52Z" transform="translate(-11.11 -7.41)"/><path class="cls-3" d="M245.06,291.19l0,2a4.54,4.54,0,0,1,1.63-1.63,4.2,4.2,0,0,1,2.16-.57,3.48,3.48,0,0,1,2.78,1,4.78,4.78,0,0,1,.93,3.16v7.63h-1.28v-7.64a3.59,3.59,0,0,0-.66-2.32,2.6,2.6,0,0,0-2.08-.76,3.23,3.23,0,0,0-2.11.75,4.34,4.34,0,0,0-1.36,2v8h-1.28V291.19Z" transform="translate(-11.11 -7.41)"/><path class="cls-3" d="M262.88,299.86a1.85,1.85,0,0,0-.77-1.54,5.92,5.92,0,0,0-2.32-.91,10.7,10.7,0,0,1-2.4-.75,3.2,3.2,0,0,1-1.27-1,2.6,2.6,0,0,1-.41-1.48,2.75,2.75,0,0,1,1.15-2.27,4.64,4.64,0,0,1,2.94-.9,4.81,4.81,0,0,1,3.13,1,3.1,3.1,0,0,1,1.17,2.51h-1.29a2.09,2.09,0,0,0-.85-1.7,3.88,3.88,0,0,0-4.19-.11,1.76,1.76,0,0,0-.77,1.47,1.58,1.58,0,0,0,.64,1.35,6.66,6.66,0,0,0,2.33.87,11.39,11.39,0,0,1,2.54.85,3.29,3.29,0,0,1,1.25,1.09,3,3,0,0,1-.78,3.88,5.06,5.06,0,0,1-3.1.88,5.17,5.17,0,0,1-3.29-1,3,3,0,0,1-1.27-2.48h1.29a2.24,2.24,0,0,0,.95,1.75,3.91,3.91,0,0,0,2.32.63,3.69,3.69,0,0,0,2.17-.59A1.77,1.77,0,0,0,262.88,299.86Z" transform="translate(-11.11 -7.41)"/><path class="cls-3" d="M271.56,303a5,5,0,0,1-4.55-2.76,6.41,6.41,0,0,1-.66-2.93v-.46a6.76,6.76,0,0,1,.65-3,5.12,5.12,0,0,1,1.81-2.11,4.47,4.47,0,0,1,2.51-.77,4.19,4.19,0,0,1,3.36,1.45,5.89,5.89,0,0,1,1.24,3.94v.72h-8.3v.25a4.83,4.83,0,0,0,1.14,3.29,3.58,3.58,0,0,0,2.85,1.32,4.2,4.2,0,0,0,1.82-.38,4,4,0,0,0,1.43-1.2l.81.61A4.69,4.69,0,0,1,271.56,303Zm-.24-10.95a3.19,3.19,0,0,0-2.44,1.06,4.85,4.85,0,0,0-1.21,2.86h7v-.14a4.29,4.29,0,0,0-1-2.73A3,3,0,0,0,271.32,292.07Z" transform="translate(-11.11 -7.41)"/><path class="cls-3" d="M283.79,292.28a4.79,4.79,0,0,0-.87-.07,3.1,3.1,0,0,0-2,.67,3.63,3.63,0,0,0-1.19,1.95v8h-1.28V291.19h1.26l0,1.84A3.42,3.42,0,0,1,283,291a2.14,2.14,0,0,1,.85.14Z" transform="translate(-11.11 -7.41)"/><path class="cls-3" d="M289.64,301l3.53-9.85h1.32l-4.34,11.62h-1l-4.36-11.62h1.32Z" transform="translate(-11.11 -7.41)"/><path class="cls-3" d="M301,303a5,5,0,0,1-2.68-.73,5,5,0,0,1-1.87-2,6.41,6.41,0,0,1-.66-2.93v-.46a6.76,6.76,0,0,1,.65-3,5.12,5.12,0,0,1,1.81-2.11,4.47,4.47,0,0,1,2.51-.77,4.19,4.19,0,0,1,3.36,1.45,5.83,5.83,0,0,1,1.24,3.94v.72H297v.25a4.82,4.82,0,0,0,1.13,3.29,3.6,3.6,0,0,0,2.85,1.32,4.17,4.17,0,0,0,1.82-.38,4,4,0,0,0,1.44-1.2l.8.61A4.67,4.67,0,0,1,301,303Zm-.24-10.95a3.19,3.19,0,0,0-2.44,1.06,4.85,4.85,0,0,0-1.21,2.86h7v-.14a4.24,4.24,0,0,0-1-2.73A3,3,0,0,0,300.72,292.07Z" transform="translate(-11.11 -7.41)"/></svg>