<svg id="Layer_1" data-name="Layer 1" xmlns="http://www.w3.org/2000/svg" xmlns:xlink="http://www.w3.org/1999/xlink" viewBox="0 0 294.21 298.3"><defs><style>.cls-1{fill:none;clip-rule:evenodd;}.cls-12,.cls-13,.cls-14,.cls-15,.cls-16,.cls-17,.cls-18,.cls-19,.cls-2,.cls-20,.cls-21,.cls-22,.cls-23,.cls-24,.cls-25,.cls-26,.cls-27,.cls-28,.cls-29,.cls-3,.cls-30,.cls-31,.cls-32,.cls-33,.cls-34,.cls-35,.cls-36,.cls-37,.cls-38,.cls-39,.cls-4,.cls-40,.cls-41,.cls-42,.cls-43,.cls-44,.cls-45,.cls-46,.cls-47,.cls-48,.cls-49,.cls-5,.cls-50,.cls-51,.cls-52,.cls-53,.cls-59,.cls-6,.cls-60,.cls-61,.cls-62,.cls-7,.cls-8,.cls-9{fill-rule:evenodd;}.cls-2{fill:url(#radial-gradient);}.cls-3{fill:url(#radial-gradient-2);}.cls-4{fill:url(#radial-gradient-3);}.cls-5{fill:url(#radial-gradient-4);}.cls-6{fill:url(#radial-gradient-5);}.cls-7{fill:url(#radial-gradient-6);}.cls-8{fill:url(#radial-gradient-7);}.cls-9{fill:url(#radial-gradient-8);}.cls-10{clip-path:url(#clip-path);}.cls-11,.cls-12{fill:#58595b;}.cls-13{fill:#595a5c;}.cls-14{fill:#5a5a5d;}.cls-15{fill:#5a5b5d;}.cls-16{fill:#5a5b5e;}.cls-17{fill:#5b5c5e;}.cls-18{fill:#5b5c5f;}.cls-19{fill:#5c5d5f;}.cls-20{fill:#5c5d60;}.cls-21{fill:#5d5e60;}.cls-22{fill:#5e5f61;}.cls-23{fill:#5e5f62;}.cls-24{fill:#5f6062;}.cls-25{fill:#606163;}.cls-26{fill:#606164;}.cls-27{fill:#616265;}.cls-28{fill:#626365;}.cls-29{fill:#636466;}.cls-30{fill:#636567;}.cls-31{fill:#646668;}.cls-32{fill:#656669;}.cls-33{fill:#66676a;}.cls-34{fill:#67686b;}.cls-35{fill:#68696c;}.cls-36{fill:#696a6c;}.cls-37{fill:#6a6b6d;}.cls-38{fill:#6b6c6e;}.cls-39{fill:#6c6d70;}.cls-40{fill:#6d6e71;}.cls-41{fill:#6e6f72;}.cls-42{fill:#6f7073;}.cls-43{fill:#707174;}.cls-44{fill:#717275;}.cls-45{fill:#727476;}.cls-46{fill:#737577;}.cls-47{fill:#747678;}.cls-48{fill:#757779;}.cls-49{fill:#76787b;}.cls-50{fill:#78797c;}.cls-51{fill:#797b7d;}.cls-52{fill:#7a7c7e;}.cls-53{fill:#7b7d80;}.cls-54,.cls-59{fill:#7c7e81;}.cls-55,.cls-60{fill:#7e8082;}.cls-56,.cls-61{fill:#7f8183;}.cls-57,.cls-62{fill:#808285;}.cls-58{clip-path:url(#clip-path-2);}.cls-63{clip-path:url(#clip-path-3);}.cls-64{fill:#72bf44;}.cls-65{fill:#231f20;}</style><radialGradient id="radial-gradient" cx="157.43" cy="100.17" r="203.68" gradientUnits="userSpaceOnUse"><stop offset="0" stop-color="#8dc63f"/><stop offset="0.04" stop-color="#87c540"/><stop offset="0.31" stop-color="#65be44"/><stop offset="0.57" stop-color="#4db947"/><stop offset="0.81" stop-color="#3eb649"/><stop offset="1" stop-color="#39b54a"/></radialGradient><radialGradient id="radial-gradient-2" cx="157.43" cy="100.17" r="203.68" xlink:href="#radial-gradient"/><radialGradient id="radial-gradient-3" cx="157.43" cy="100.17" r="203.68" xlink:href="#radial-gradient"/><radialGradient id="radial-gradient-4" cx="157.43" cy="100.17" r="203.68" xlink:href="#radial-gradient"/><radialGradient id="radial-gradient-5" cx="157.43" cy="100.17" r="203.68" xlink:href="#radial-gradient"/><radialGradient id="radial-gradient-6" cx="157.43" cy="100.17" r="203.68" xlink:href="#radial-gradient"/><radialGradient id="radial-gradient-7" cx="157.43" cy="100.17" r="203.68" xlink:href="#radial-gradient"/><radialGradient id="radial-gradient-8" cx="157.43" cy="100.17" r="203.68" xlink:href="#radial-gradient"/><clipPath id="clip-path" transform="translate(-11.11 -7.41)"><path class="cls-1" d="M150.19,132.31c-11.63-19.8-31.09-24.4-47.33-29.51-2-.63-6.41-1.06-8.07-2.44,39.23,32.88,55.34,49.41,65.38,92.87C161.9,200.71,164.39,156.52,150.19,132.31Z"/></clipPath><clipPath id="clip-path-2" transform="translate(-11.11 -7.41)"><path class="cls-1" d="M174.93,124.5c8.79-15,23.48-18.44,35.75-22.3,1.51-.48,4.84-.8,6.1-1.84-29.88,25-41.84,37.51-49.39,70.15C166.08,176.15,164.2,142.78,174.93,124.5Z"/></clipPath><clipPath id="clip-path-3" transform="translate(-11.11 -7.41)"><path class="cls-1" d="M168.91,100.35a13.13,13.13,0,1,1-13.13-13.12A13.13,13.13,0,0,1,168.91,100.35Z"/></clipPath></defs><title>eccms-logo</title><path class="cls-2" d="M166.3,26.11a125.11,125.11,0,0,0-10.82-18.7c-.54.91-8.43,11.36-12.21,23.07-3.63,11.22-5.79,25.92,4.48,32.26.41-1.15,8.35-18.81,8.35-18.81.22.36,9.11,18,9.76,18.76C174.84,50.38,171.06,36,166.3,26.11Z" transform="translate(-11.11 -7.41)"/><path class="cls-3" d="M242.44,136.4a105.63,105.63,0,0,0,15.88-9.19c-.78-.46-9.65-7.15-19.59-10.37-9.53-3.08-22-4.91-27.4,3.81,1,.35,16,7.09,16,7.09-.3.18-15.29,7.74-15.92,8.29C221.83,143.65,234,140.44,242.44,136.4Z" transform="translate(-11.11 -7.41)"/><path class="cls-4" d="M69.13,118.54a105.63,105.63,0,0,0-15.88,9.19c.77.46,9.65,7.15,19.59,10.37,9.53,3.07,22,4.91,27.39-3.81-1-.35-16-7.09-16-7.09.3-.18,15.29-7.74,15.93-8.29C89.73,111.29,77.53,114.5,69.13,118.54Z" transform="translate(-11.11 -7.41)"/><path class="cls-5" d="M267.18,80.11a89.78,89.78,0,0,0,4-15.07c-.74.19-10.1,1.5-18,5.54C245.61,74.46,237,80.86,239,89.34c.8-.38,13.87-5.34,13.86-5.34-.07.29-4.54,13.84-4.59,14.56C259.15,96.85,264.56,87.59,267.18,80.11Z" transform="translate(-11.11 -7.41)"/><path class="cls-6" d="M55.44,69.58a89.78,89.78,0,0,0-15.07-4c.18.74,1.5,10.1,5.54,18,3.88,7.58,10.27,16.19,18.76,14.19-.38-.8-5.35-13.87-5.34-13.86.29.06,13.84,4.53,14.55,4.59C72.18,77.61,62.92,72.2,55.44,69.58Z" transform="translate(-11.11 -7.41)"/><path class="cls-7" d="M90.13,154.81a79,79,0,0,0-5.39,12.54c.67-.07,8.94,0,16.29-2.52,7.06-2.4,15.32-6.85,14.65-14.45-.73.23-12.68,2.87-12.67,2.87.1-.24,5.68-11.41,5.81-12C99.2,141.33,93.34,148.67,90.13,154.81Z" transform="translate(-11.11 -7.41)"/><path class="cls-8" d="M235.52,62.15c4.66-13.28,6.82-24.55,6.87-25.76-1.27.33-17.26,2.57-30.78,9.48-13,6.63-27.66,17.56-24.24,32.06,1.37-.64,23.7-9.13,23.7-9.13-.13.5-7.76,23.67-7.85,24.89C221.79,90.77,231,74.94,235.52,62.15Z" transform="translate(-11.11 -7.41)"/><path class="cls-9" d="M94.93,44.15c-13.28-4.66-24.55-6.82-25.76-6.87.33,1.27,2.57,17.26,9.48,30.78,6.62,13,17.56,27.66,32.06,24.24-.64-1.37-9.13-23.7-9.13-23.7.5.13,23.67,7.76,24.89,7.85C123.55,57.88,107.72,48.63,94.93,44.15Z" transform="translate(-11.11 -7.41)"/><g class="cls-10"><rect class="cls-11" x="83.68" y="92.95" width="69.6" height="100.35"/><polygon class="cls-12" points="154.28 115.81 154.28 194.3 82.68 194.3 82.68 91.95 154.28 91.95 154.28 115.81"/><polygon class="cls-12" points="154.28 115.81 154.28 194.3 82.68 194.3 82.68 91.95 154.28 91.95 154.28 115.81"/><polygon class="cls-12" points="154.28 115.81 154.28 194.3 82.68 194.3 82.68 91.95 154.28 91.95 154.28 115.81"/><polygon class="cls-12" points="154.28 115.81 154.28 194.3 82.68 194.3 82.68 91.95 154.28 91.95 154.28 115.81"/><polygon class="cls-13" points="154.28 115.81 154.28 194.3 82.68 194.3 82.68 91.95 154.28 91.95 154.28 115.81"/><polygon class="cls-13" points="154.28 115.81 154.28 194.3 82.68 194.3 82.68 91.95 154.28 91.95 154.28 115.81"/><polygon class="cls-13" points="154.28 115.81 154.28 194.3 82.68 194.3 82.68 91.95 154.28 91.95 154.28 115.81"/><polygon class="cls-14" points="154.28 115.81 154.28 194.3 82.68 194.3 82.68 91.95 154.28 91.95 154.28 115.81"/><polygon class="cls-15" points="154.28 115.81 154.28 194.3 82.68 194.3 82.68 91.95 154.28 91.95 154.28 115.81"/><polygon class="cls-16" points="154.28 115.81 154.28 194.3 82.68 194.3 82.68 91.95 154.28 91.95 154.28 115.81"/><polygon class="cls-17" points="154.28 115.81 154.28 194.3 82.68 194.3 82.68 91.95 154.28 91.95 154.28 115.81"/><polygon class="cls-18" points="154.28 115.81 154.28 194.3 82.68 194.3 82.68 91.95 154.28 91.95 154.28 115.81"/><polygon class="cls-19" points="154.28 115.81 154.28 194.3 82.68 194.3 82.68 91.95 154.28 91.95 154.28 115.81"/><polygon class="cls-20" points="154.28 115.81 154.28 194.3 82.68 194.3 82.68 91.95 154.28 91.95 154.28 115.81"/><polygon class="cls-21" points="154.28 115.81 154.28 194.3 82.68 194.3 82.68 91.95 154.28 91.95 154.28 115.81"/><polygon class="cls-22" points="154.28 115.81 154.28 194.3 82.68 194.3 82.68 91.95 154.28 91.95 154.28 115.81"/><polygon class="cls-23" points="154.28 115.81 154.28 194.3 82.68 194.3 82.68 91.95 154.28 91.95 154.28 115.81"/><polygon class="cls-24" points="154.28 115.81 154.28 192.07 154.28 194.3 82.68 194.3 82.68 91.95 154.28 91.95 154.28 115.81"/><polygon class="cls-25" points="154.28 115.81 154.28 189.83 154.28 194.3 82.68 194.3 82.68 91.95 154.28 91.95 154.28 115.81"/><path class="cls-26" d="M165.39,123.22v78.49H102.64v5.67a101.47,101.47,0,0,1-15-12.39h6.17V99.36h71.6Z" transform="translate(-11.11 -7.41)"/><path class="cls-27" d="M165.39,123.22v78.49h-61v3a98.54,98.54,0,0,1-14.55-12h3.93V99.36h71.6Z" transform="translate(-11.11 -7.41)"/><path class="cls-28" d="M165.39,123.22v78.49H106.18v.41A95.67,95.67,0,0,1,92.1,190.5h1.69V99.36h71.6Z" transform="translate(-11.11 -7.41)"/><path class="cls-29" d="M165.39,123.22v78.49H123.58V208a92.08,92.08,0,0,1-29.23-19.71q-3.13-3.12-5.94-6.53h5.38V99.36h71.6Z" transform="translate(-11.11 -7.41)"/><path class="cls-30" d="M165.39,123.22v78.49H124.82v3.34a88.86,88.86,0,0,1-28.23-19q-3-3-5.73-6.31h2.93V99.36h71.6Z" transform="translate(-11.11 -7.41)"/><path class="cls-31" d="M165.39,123.22v78.49H126.05v.42a86,86,0,0,1-37.68-31h5.42V99.36h71.6Z" transform="translate(-11.11 -7.41)"/><path class="cls-32" d="M165.39,123.22v78.49h-6v4a82.2,82.2,0,0,1-58.32-24.16A83.08,83.08,0,0,1,91,169.33h2.79v-70h71.6Z" transform="translate(-11.11 -7.41)"/><path class="cls-33" d="M165.39,123.22v78.49h-6v.81a79.43,79.43,0,0,1-65.76-35h.16V99.36h71.6Z" transform="translate(-11.11 -7.41)"/><path class="cls-34" d="M165.39,123.22V199h1.78a77.05,77.05,0,0,1-7.78.39,76.17,76.17,0,0,1-70.14-46.49h4.54V99.36h71.6Z" transform="translate(-11.11 -7.41)"/><path class="cls-35" d="M165.39,123.22V195.8h1.46c-2.46.24-4.94.37-7.46.37a73,73,0,0,1-67.22-44.55h1.62V99.36h71.6Z" transform="translate(-11.11 -7.41)"/><path class="cls-36" d="M165.39,123.22v69.42h1.13A69.82,69.82,0,0,1,95.09,96.06v3.3h70.3Z" transform="translate(-11.11 -7.41)"/><path class="cls-37" d="M165.39,123.22v66.26h.81A66.65,66.65,0,0,1,98,97.29v2.07h67.38Z" transform="translate(-11.11 -7.41)"/><path class="cls-38" d="M165.39,123.22v62.15h6.78A63.49,63.49,0,0,1,96,123.22a63.23,63.23,0,0,1,5-24.69v.83h64.45Z" transform="translate(-11.11 -7.41)"/><path class="cls-39" d="M165.39,123.22v59h6.14a60.3,60.3,0,0,1-67.67-82.5q1.14-2.7,2.54-5.27v4.87h59Z" transform="translate(-11.11 -7.41)"/><path class="cls-40" d="M165.39,123.22v55.93h5.5A57.12,57.12,0,0,1,106.78,101c.72-1.71,1.53-3.38,2.4-5v3.35h56.21Z" transform="translate(-11.11 -7.41)"/><path class="cls-41" d="M165.39,123.22v52.83h4.86a54.72,54.72,0,0,1-10.86,1.09,54,54,0,0,1-49.69-74.91,55,55,0,0,1,5-9.16v6.29h50.72Z" transform="translate(-11.11 -7.41)"/><path class="cls-42" d="M165.39,123.22v49.72h4.22a51.34,51.34,0,0,1-10.22,1A50.75,50.75,0,0,1,117.3,94.85v4.51h48.09Z" transform="translate(-11.11 -7.41)"/><path class="cls-43" d="M165.39,123.22v46.61H169a48.14,48.14,0,0,1-9.59,1,47.6,47.6,0,0,1-43.84-66.1,47,47,0,0,1,4.38-8.08v2.74h45.46Z" transform="translate(-11.11 -7.41)"/><path class="cls-44" d="M165.39,123.22v43.5h3A44.42,44.42,0,0,1,115,123.22a44.18,44.18,0,0,1,3.49-17.28,43.65,43.65,0,0,1,4.1-7.55v1h42.82Z" transform="translate(-11.11 -7.41)"/><path class="cls-45" d="M165.39,123.22v40.4h2.31a41.24,41.24,0,0,1-37.47-69.56v5.3h35.16Z" transform="translate(-11.11 -7.41)"/><path class="cls-46" d="M165.39,123.22v37.29h1.67a38.06,38.06,0,0,1-34.59-64.2v3h32.92Z" transform="translate(-11.11 -7.41)"/><path class="cls-47" d="M165.39,123.22V157.4h1a34.89,34.89,0,0,1-31.7-58.85v.81h30.67Z" transform="translate(-11.11 -7.41)"/><path class="cls-48" d="M165.39,123.22v29.23h6.34A31.73,31.73,0,0,1,147,94v5.37h18.35Z" transform="translate(-11.11 -7.41)"/><path class="cls-49" d="M165.39,123.22v26.3h5.11a28.55,28.55,0,1,1-11.11-54.85v4.69h6Z" transform="translate(-11.11 -7.41)"/><path class="cls-50" d="M165.39,123.22V146.6h3.87a25.37,25.37,0,1,1,0-46.76h-3.87Z" transform="translate(-11.11 -7.41)"/><path class="cls-51" d="M165.39,123.22v20.46H168a22.2,22.2,0,1,1,0-40.92h-2.64Z" transform="translate(-11.11 -7.41)"/><path class="cls-52" d="M165.39,123.22v17.54h1.4a19,19,0,1,1,0-35.08h-1.4Z" transform="translate(-11.11 -7.41)"/><path class="cls-53" d="M165.39,123.22v11.21h5.21a15.86,15.86,0,1,1,0-22.42h-5.21Z" transform="translate(-11.11 -7.41)"/><circle class="cls-54" cx="148.28" cy="115.81" r="12.69"/><circle class="cls-55" cx="148.28" cy="115.81" r="9.52"/><circle class="cls-56" cx="148.28" cy="115.81" r="6.34"/><circle class="cls-57" cx="148.28" cy="115.81" r="3.17"/></g><g class="cls-58"><rect class="cls-11" x="153.09" y="92.95" width="52.58" height="75.8"/><polygon class="cls-12" points="206.66 115.81 206.66 169.75 152.09 169.75 152.09 91.95 206.66 91.95 206.66 115.81"/><polygon class="cls-12" points="206.66 115.81 206.66 169.75 152.09 169.75 152.09 91.95 206.66 91.95 206.66 115.81"/><polygon class="cls-12" points="206.66 115.81 206.66 169.75 152.09 169.75 152.09 91.95 206.66 91.95 206.66 115.81"/><polygon class="cls-12" points="206.66 115.81 206.66 169.75 152.09 169.75 152.09 91.95 206.66 91.95 206.66 115.81"/><polygon class="cls-13" points="206.66 115.81 206.66 169.75 152.09 169.75 152.09 91.95 206.66 91.95 206.66 115.81"/><polygon class="cls-13" points="206.66 115.81 206.66 169.75 152.09 169.75 152.09 91.95 206.66 91.95 206.66 115.81"/><polygon class="cls-13" points="206.66 115.81 206.66 169.75 152.09 169.75 152.09 91.95 206.66 91.95 206.66 115.81"/><polygon class="cls-14" points="206.66 115.81 206.66 169.75 152.09 169.75 152.09 91.95 206.66 91.95 206.66 115.81"/><polygon class="cls-15" points="206.66 115.81 206.66 169.75 152.09 169.75 152.09 91.95 206.66 91.95 206.66 115.81"/><polygon class="cls-16" points="206.66 115.81 206.66 169.75 152.09 169.75 152.09 91.95 206.66 91.95 206.66 115.81"/><polygon class="cls-17" points="206.66 115.81 206.66 169.75 152.09 169.75 152.09 91.95 206.66 91.95 206.66 115.81"/><polygon class="cls-18" points="206.66 115.81 206.66 169.75 152.09 169.75 152.09 91.95 206.66 91.95 206.66 115.81"/><polygon class="cls-19" points="206.66 115.81 206.66 169.75 152.09 169.75 152.09 91.95 206.66 91.95 206.66 115.81"/><polygon class="cls-20" points="206.66 115.81 206.66 169.75 152.09 169.75 152.09 91.95 206.66 91.95 206.66 115.81"/><polygon class="cls-21" points="206.66 115.81 206.66 169.75 152.09 169.75 152.09 91.95 206.66 91.95 206.66 115.81"/><polygon class="cls-22" points="206.66 115.81 206.66 169.75 152.09 169.75 152.09 91.95 206.66 91.95 206.66 115.81"/><polygon class="cls-23" points="206.66 115.81 206.66 169.75 152.09 169.75 152.09 91.95 206.66 91.95 206.66 115.81"/><polygon class="cls-24" points="206.66 115.81 206.66 169.75 152.09 169.75 152.09 91.95 206.66 91.95 206.66 115.81"/><polygon class="cls-25" points="206.66 115.81 206.66 169.75 152.09 169.75 152.09 91.95 206.66 91.95 206.66 115.81"/><polygon class="cls-26" points="206.66 115.81 206.66 169.75 152.09 169.75 152.09 91.95 206.66 91.95 206.66 115.81"/><polygon class="cls-27" points="206.66 115.81 206.66 169.75 152.09 169.75 152.09 91.95 206.66 91.95 206.66 115.81"/><polygon class="cls-28" points="206.66 115.81 206.66 169.75 152.09 169.75 152.09 91.95 206.66 91.95 206.66 115.81"/><polygon class="cls-29" points="206.66 115.81 206.66 169.75 152.09 169.75 152.09 91.95 206.66 91.95 206.66 115.81"/><polygon class="cls-30" points="206.66 115.81 206.66 169.75 152.09 169.75 152.09 91.95 206.66 91.95 206.66 115.81"/><polygon class="cls-31" points="206.66 115.81 206.66 169.75 152.09 169.75 152.09 91.95 206.66 91.95 206.66 115.81"/><path class="cls-32" d="M217.78,123.22v52.46H223c-1.68,2-3.45,4-5.32,5.85v-4.38H163.2V99.36h54.58Z" transform="translate(-11.11 -7.41)"/><path class="cls-33" d="M217.78,123.22v50.44h2.8q-2.43,2.94-5.12,5.63v-2.14H163.2V99.36h54.58Z" transform="translate(-11.11 -7.41)"/><path class="cls-34" d="M217.78,123.22v42.56h4.73a76.74,76.74,0,0,1-9.3,11.27q-2.58,2.58-5.4,4.91v-4.81H163.2V99.36h54.58Z" transform="translate(-11.11 -7.41)"/><path class="cls-35" d="M217.78,123.22V164h2.1a73.65,73.65,0,0,1-19.7,19.7v-6.56h-37V99.36h54.58Z" transform="translate(-11.11 -7.41)"/><path class="cls-36" d="M217.78,123.22v27.16h5.9a70,70,0,0,1-25.28,30.7v-3.93H163.2V99.36h54.58Z" transform="translate(-11.11 -7.41)"/><path class="cls-37" d="M217.78,123.22v25.93h3a66.78,66.78,0,0,1-24.13,29.3v-1.3H163.2V99.36h54.58Z" transform="translate(-11.11 -7.41)"/><path class="cls-38" d="M222.82,123.22a63.49,63.49,0,0,1-38.74,58.45v-4.52H163.2V99.36h54.58v23.86Z" transform="translate(-11.11 -7.41)"/><path class="cls-39" d="M219.65,123.22a60.26,60.26,0,0,1-60.26,60.26l3.81-6.33V99.36h49.18V94.49c.93,1.71,1.77,3.47,2.54,5.27A60.08,60.08,0,0,1,219.65,123.22Z" transform="translate(-11.11 -7.41)"/><path class="cls-40" d="M216.48,123.22a57.09,57.09,0,0,1-57.09,57.09l3.81-3.16V99.36h46.39V96a54.53,54.53,0,0,1,2.4,5A56.89,56.89,0,0,1,216.48,123.22Z" transform="translate(-11.11 -7.41)"/><path class="cls-41" d="M213.31,123.22a53.92,53.92,0,0,1-53.92,53.92h3.81V99.36h40.9V93.07a53.72,53.72,0,0,1,9.21,30.15Z" transform="translate(-11.11 -7.41)"/><path class="cls-42" d="M210.14,123.22A50.75,50.75,0,0,1,159.39,174h3.81V99.36h38.27V94.85a51.18,51.18,0,0,1,4.68,8.62A50.52,50.52,0,0,1,210.14,123.22Z" transform="translate(-11.11 -7.41)"/><path class="cls-43" d="M207,123.22a47.57,47.57,0,0,1-47.57,47.58h3.81V99.36h35.64V96.62a47.22,47.22,0,0,1,8.12,26.6Z" transform="translate(-11.11 -7.41)"/><path class="cls-44" d="M203.79,123.22a44.41,44.41,0,0,1-44.4,44.41h3.81V99.36h33v-1a44.33,44.33,0,0,1,7.58,24.83Z" transform="translate(-11.11 -7.41)"/><path class="cls-45" d="M200.62,123.22a41.23,41.23,0,0,1-41.23,41.23h3.81V99.36h25.34v-5.3A41.09,41.09,0,0,1,200.62,123.22Z" transform="translate(-11.11 -7.41)"/><path class="cls-46" d="M197.45,123.22a38.06,38.06,0,0,1-38.06,38.06h3.81V99.36h23.1v-3A37.91,37.91,0,0,1,197.45,123.22Z" transform="translate(-11.11 -7.41)"/><path class="cls-47" d="M194.28,123.22a34.89,34.89,0,0,1-34.89,34.89h3.81V99.36h20.86v-.81A34.8,34.8,0,0,1,194.28,123.22Z" transform="translate(-11.11 -7.41)"/><path class="cls-48" d="M191.11,123.22a31.72,31.72,0,0,1-31.72,31.72h3.81V99.36h8.53V94a31.75,31.75,0,0,1,19.38,29.23Z" transform="translate(-11.11 -7.41)"/><path class="cls-49" d="M187.93,123.22a28.54,28.54,0,0,1-28.54,28.55h3.81V99.36l-3.81-4.69A28.54,28.54,0,0,1,187.93,123.22Z" transform="translate(-11.11 -7.41)"/><path class="cls-50" d="M184.76,123.22a25.37,25.37,0,0,1-25.37,25.37h3.81V99.36l-3.81-1.51A25.37,25.37,0,0,1,184.76,123.22Z" transform="translate(-11.11 -7.41)"/><path class="cls-51" d="M181.59,123.22a22.2,22.2,0,0,1-22.2,22.2h3.81V101h-3.81A22.2,22.2,0,0,1,181.59,123.22Z" transform="translate(-11.11 -7.41)"/><path class="cls-52" d="M178.42,123.22a19,19,0,0,1-19,19h3.81V104.19h-3.81A19,19,0,0,1,178.42,123.22Z" transform="translate(-11.11 -7.41)"/><path class="cls-53" d="M175.25,123.22a15.86,15.86,0,0,1-15.86,15.86h3.81V107.36h-3.81A15.86,15.86,0,0,1,175.25,123.22Z" transform="translate(-11.11 -7.41)"/><path class="cls-59" d="M172.07,123.22a12.69,12.69,0,0,1-12.68,12.69h3.81V110.53h-3.81A12.69,12.69,0,0,1,172.07,123.22Z" transform="translate(-11.11 -7.41)"/><path class="cls-60" d="M168.9,123.22a9.51,9.51,0,0,1-9.51,9.52h3.81v-19h-3.81A9.51,9.51,0,0,1,168.9,123.22Z" transform="translate(-11.11 -7.41)"/><path class="cls-61" d="M165.73,123.22a6.34,6.34,0,0,1-6.34,6.34h3.81V116.88h-3.81A6.34,6.34,0,0,1,165.73,123.22Z" transform="translate(-11.11 -7.41)"/><path class="cls-62" d="M163.2,123.22v0Z" transform="translate(-11.11 -7.41)"/></g><g class="cls-63"><rect class="cls-11" x="131.54" y="79.82" width="26.26" height="26.26"/><polygon class="cls-12" points="158.8 107.08 148.28 107.08 130.54 107.08 130.54 78.82 158.8 78.82 158.8 107.08"/><polygon class="cls-12" points="158.8 107.08 148.28 107.08 130.54 107.08 130.54 78.82 158.8 78.82 158.8 107.08"/><polygon class="cls-12" points="158.8 107.08 148.28 107.08 130.54 107.08 130.54 78.82 158.8 78.82 158.8 107.08"/><polygon class="cls-12" points="158.8 107.08 148.28 107.08 130.54 107.08 130.54 78.82 158.8 78.82 158.8 107.08"/><polygon class="cls-13" points="158.8 107.08 148.28 107.08 130.54 107.08 130.54 78.82 158.8 78.82 158.8 107.08"/><polygon class="cls-13" points="158.8 107.08 148.28 107.08 130.54 107.08 130.54 78.82 158.8 78.82 158.8 107.08"/><polygon class="cls-13" points="158.8 107.08 148.28 107.08 130.54 107.08 130.54 78.82 158.8 78.82 158.8 107.08"/><polygon class="cls-14" points="158.8 107.08 148.28 107.08 130.54 107.08 130.54 78.82 158.8 78.82 158.8 107.08"/><polygon class="cls-15" points="158.8 107.08 148.28 107.08 130.54 107.08 130.54 78.82 158.8 78.82 158.8 107.08"/><polygon class="cls-16" points="158.8 107.08 148.28 107.08 130.54 107.08 130.54 78.82 158.8 78.82 158.8 107.08"/><polygon class="cls-17" points="158.8 107.08 148.28 107.08 130.54 107.08 130.54 78.82 158.8 78.82 158.8 107.08"/><polygon class="cls-18" points="158.8 107.08 148.28 107.08 130.54 107.08 130.54 78.82 158.8 78.82 158.8 107.08"/><polygon class="cls-19" points="158.8 107.08 148.28 107.08 130.54 107.08 130.54 78.82 158.8 78.82 158.8 107.08"/><polygon class="cls-20" points="158.8 107.08 148.28 107.08 130.54 107.08 130.54 78.82 158.8 78.82 158.8 107.08"/><polygon class="cls-21" points="158.8 107.08 148.28 107.08 130.54 107.08 130.54 78.82 158.8 78.82 158.8 107.08"/><polygon class="cls-22" points="158.8 107.08 148.28 107.08 130.54 107.08 130.54 78.82 158.8 78.82 158.8 107.08"/><polygon class="cls-23" points="158.8 107.08 148.28 107.08 130.54 107.08 130.54 78.82 158.8 78.82 158.8 107.08"/><polygon class="cls-24" points="158.8 107.08 148.28 107.08 130.54 107.08 130.54 78.82 158.8 78.82 158.8 107.08"/><polygon class="cls-25" points="158.8 107.08 148.28 107.08 130.54 107.08 130.54 78.82 158.8 78.82 158.8 107.08"/><polygon class="cls-26" points="158.8 107.08 148.28 107.08 130.54 107.08 130.54 78.82 158.8 78.82 158.8 107.08"/><polygon class="cls-27" points="158.8 107.08 148.28 107.08 130.54 107.08 130.54 78.82 158.8 78.82 158.8 107.08"/><polygon class="cls-28" points="158.8 107.08 148.28 107.08 130.54 107.08 130.54 78.82 158.8 78.82 158.8 107.08"/><polygon class="cls-29" points="158.8 107.08 148.28 107.08 130.54 107.08 130.54 78.82 158.8 78.82 158.8 107.08"/><polygon class="cls-30" points="158.8 107.08 148.28 107.08 130.54 107.08 130.54 78.82 158.8 78.82 158.8 107.08"/><polygon class="cls-31" points="158.8 107.08 148.28 107.08 130.54 107.08 130.54 78.82 158.8 78.82 158.8 107.08"/><polygon class="cls-32" points="158.8 107.08 148.28 107.08 130.54 107.08 130.54 78.82 158.8 78.82 158.8 107.08"/><polygon class="cls-33" points="158.8 107.08 148.28 107.08 130.54 107.08 130.54 78.82 158.8 78.82 158.8 107.08"/><polygon class="cls-34" points="158.8 107.08 148.28 107.08 130.54 107.08 130.54 78.82 158.8 78.82 158.8 107.08"/><polygon class="cls-35" points="158.8 107.08 148.28 107.08 130.54 107.08 130.54 78.82 158.8 78.82 158.8 107.08"/><polygon class="cls-36" points="158.8 107.08 148.28 107.08 130.54 107.08 130.54 78.82 158.8 78.82 158.8 107.08"/><polygon class="cls-37" points="158.8 107.08 148.28 107.08 130.54 107.08 130.54 78.82 158.8 78.82 158.8 107.08"/><polygon class="cls-38" points="158.8 107.08 148.28 107.08 130.54 107.08 130.54 78.82 158.8 78.82 158.8 107.08"/><polygon class="cls-39" points="158.8 107.08 148.28 107.08 130.54 107.08 130.54 78.82 158.8 78.82 158.8 107.08"/><polygon class="cls-40" points="158.8 107.08 148.28 107.08 130.54 107.08 130.54 78.82 158.8 78.82 158.8 107.08"/><polygon class="cls-41" points="158.8 107.08 148.28 107.08 130.54 107.08 130.54 78.82 158.8 78.82 158.8 107.08"/><polygon class="cls-42" points="158.8 107.08 148.28 107.08 130.54 107.08 130.54 78.82 158.8 78.82 158.8 107.08"/><polygon class="cls-43" points="158.8 107.08 148.28 107.08 130.54 107.08 130.54 78.82 158.8 78.82 158.8 107.08"/><polygon class="cls-44" points="158.8 107.08 148.28 107.08 130.54 107.08 130.54 78.82 158.8 78.82 158.8 107.08"/><path class="cls-45" d="M169.91,114.49H141.65V89h-5.32a41.21,41.21,0,0,1,7-3.8v1h26.57Z" transform="translate(-11.11 -7.41)"/><path class="cls-46" d="M169.91,114.49H141.65V91.66h-3.54a37.29,37.29,0,0,1,6.46-3.51,38.2,38.2,0,0,1,29.63,0h-4.29Z" transform="translate(-11.11 -7.41)"/><path class="cls-47" d="M169.91,114.49H141.65V98.55h-6.93A34.93,34.93,0,0,1,173,91.07h-3.06Z" transform="translate(-11.11 -7.41)"/><path class="cls-48" d="M169.91,114.49H141.65v-13.7H137A31.76,31.76,0,0,1,171.73,94h-1.82Z" transform="translate(-11.11 -7.41)"/><path class="cls-49" d="M169.91,114.49H141.65V103H139.2a28.56,28.56,0,0,1,31.3-6.11h-.59Z" transform="translate(-11.11 -7.41)"/><path class="cls-50" d="M169.91,114.49H141.65v-9.21h-.21a25.34,25.34,0,0,1,32.13-3.1h-3.66Z" transform="translate(-11.11 -7.41)"/><path class="cls-51" d="M169.91,114.49H141.65l-2.72.09a22.21,22.21,0,0,1,36.16-7.06h-5.18Z" transform="translate(-11.11 -7.41)"/><path class="cls-52" d="M169.91,114.49H141.85v1.32a19,19,0,0,1,31-6h-2.93Z" transform="translate(-11.11 -7.41)"/><path class="cls-53" d="M169.91,114.49H144.77v2.56a16,16,0,0,1,3.4-5,15.85,15.85,0,0,1,22.43,0h-.69Z" transform="translate(-11.11 -7.41)"/><path class="cls-59" d="M169.91,114.49H147.7v3.79a12.7,12.7,0,0,1,23.38,0Z" transform="translate(-11.11 -7.41)"/><path class="cls-60" d="M168.9,114.49H152.66v2a9.51,9.51,0,0,1,13.46,0v-2Z" transform="translate(-11.11 -7.41)"/><path class="cls-61" d="M165.73,114.49h0Z" transform="translate(-11.11 -7.41)"/><path class="cls-62" d="M162.56,114.49h0Z" transform="translate(-11.11 -7.41)"/></g><path class="cls-64" d="M56.65,242.36H29.59V266H60.7v4.13h-36V212.25H60.5v4.13H29.59v21.85H56.65Z" transform="translate(-11.11 -7.41)"/><path class="cls-64" d="M112,252.05q-1,9.15-6.54,14t-14.75,4.84a20.45,20.45,0,0,1-11.39-3.21,21.06,21.06,0,0,1-7.64-9.12,32.39,32.39,0,0,1-2.75-13.49v-7.51a32.62,32.62,0,0,1,2.71-13.66,20.78,20.78,0,0,1,7.76-9.2A21.19,21.19,0,0,1,91,211.45q9.3,0,14.68,5T112,230.32H107q-1.83-14.73-16-14.74a15.18,15.18,0,0,0-12.53,5.89q-4.67,5.88-4.67,16.26v7.08q0,10,4.55,16a14.64,14.64,0,0,0,12.3,6q7.66,0,11.56-3.67t4.8-11Z" transform="translate(-11.11 -7.41)"/><path class="cls-64" d="M164.79,252.05q-1,9.15-6.54,14t-14.76,4.84a20.44,20.44,0,0,1-11.38-3.21,21.08,21.08,0,0,1-7.65-9.12,32.55,32.55,0,0,1-2.74-13.49v-7.51a32.78,32.78,0,0,1,2.7-13.66,20.73,20.73,0,0,1,7.77-9.2,21.17,21.17,0,0,1,11.66-3.24q9.3,0,14.68,5t6.26,13.86h-4.93q-1.83-14.73-16-14.74a15.18,15.18,0,0,0-12.53,5.89q-4.68,5.88-4.67,16.26v7.08q0,10,4.55,16a14.63,14.63,0,0,0,12.29,6q7.66,0,11.56-3.67t4.81-11Z" transform="translate(-11.11 -7.41)"/><path class="cls-65" d="M188.27,212.25,205,256.58l16.65-44.33h13v57.84h-10V251l1-25.5-17.08,44.57H201.3l-17.05-44.53,1,25.46v19.07h-10V212.25Z" transform="translate(-11.11 -7.41)"/><path class="cls-65" d="M276.7,255.19a7,7,0,0,0-2.68-5.88q-2.68-2.06-9.68-4.17a46.12,46.12,0,0,1-11.12-4.69q-7.91-5-7.91-12.95A14.11,14.11,0,0,1,251,216q5.7-4.53,14.79-4.53a24.9,24.9,0,0,1,10.77,2.23A17.65,17.65,0,0,1,284,220a16.28,16.28,0,0,1,2.7,9.12h-10a9.07,9.07,0,0,0-2.84-7.09q-2.83-2.56-8.13-2.56-4.92,0-7.64,2.1a7,7,0,0,0-2.72,5.88,6.36,6.36,0,0,0,2.94,5.31q2.94,2.11,9.69,4.13a44.73,44.73,0,0,1,10.85,4.57,17.31,17.31,0,0,1,6,5.88,15.21,15.21,0,0,1,1.91,7.76,13.77,13.77,0,0,1-5.54,11.5q-5.55,4.27-15,4.27a28.26,28.26,0,0,1-11.54-2.32,19.33,19.33,0,0,1-8.18-6.42,15.93,15.93,0,0,1-2.92-9.53h10.05a9.34,9.34,0,0,0,3.26,7.63q3.26,2.7,9.33,2.7,5.25,0,7.89-2.13A6.85,6.85,0,0,0,276.7,255.19Z" transform="translate(-11.11 -7.41)"/><path class="cls-65" d="M12.43,296.44v6.37H11.11V287.17h5.33a5.61,5.61,0,0,1,3.85,1.25,4.33,4.33,0,0,1,1.41,3.42,4.28,4.28,0,0,1-1.36,3.4,5.74,5.74,0,0,1-3.93,1.2Zm0-1.12h4a4.22,4.22,0,0,0,2.93-.91,3.24,3.24,0,0,0,1-2.55,3.4,3.4,0,0,0-1-2.59,4,4,0,0,0-2.85-1h-4.1Z" transform="translate(-11.11 -7.41)"/><path class="cls-65" d="M29.73,292.28a4.79,4.79,0,0,0-.87-.07,3.15,3.15,0,0,0-2,.67,3.68,3.68,0,0,0-1.18,1.95v8H24.36V291.19h1.25l0,1.84A3.42,3.42,0,0,1,28.91,291a2.18,2.18,0,0,1,.85.14Z" transform="translate(-11.11 -7.41)"/><path class="cls-65" d="M30.83,296.83a6.87,6.87,0,0,1,.65-3,5,5,0,0,1,1.84-2.09A4.93,4.93,0,0,1,36,291a4.8,4.8,0,0,1,3.76,1.63,6.25,6.25,0,0,1,1.44,4.31v.27a7,7,0,0,1-.65,3,4.8,4.8,0,0,1-1.83,2.07A5,5,0,0,1,36,303a4.78,4.78,0,0,1-3.75-1.62,6.3,6.3,0,0,1-1.45-4.32Zm1.29.35a5.26,5.26,0,0,0,1.08,3.42,3.65,3.65,0,0,0,5.65,0,5.45,5.45,0,0,0,1.08-3.53v-.24a5.91,5.91,0,0,0-.49-2.44,3.89,3.89,0,0,0-1.39-1.71,3.48,3.48,0,0,0-2-.61,3.43,3.43,0,0,0-2.8,1.35,5.39,5.39,0,0,0-1.09,3.52Z" transform="translate(-11.11 -7.41)"/><path class="cls-65" d="M45.86,288.21v3h2.41v1.05H45.86V300a2.42,2.42,0,0,0,.35,1.44,1.34,1.34,0,0,0,1.17.48,8.51,8.51,0,0,0,1-.11l0,1a4.16,4.16,0,0,1-1.37.18,2.29,2.29,0,0,1-1.92-.76,3.56,3.56,0,0,1-.61-2.26v-7.76H42.44v-1.05h2.13v-3Z" transform="translate(-11.11 -7.41)"/><path class="cls-65" d="M55.43,303a5,5,0,0,1-2.68-.73,4.88,4.88,0,0,1-1.86-2,6.41,6.41,0,0,1-.67-2.93v-.46a6.9,6.9,0,0,1,.65-3,5.27,5.27,0,0,1,1.81-2.11A4.52,4.52,0,0,1,55.2,291a4.16,4.16,0,0,1,3.35,1.45,5.84,5.84,0,0,1,1.25,3.94v.72H51.5v.25a4.83,4.83,0,0,0,1.14,3.29,3.58,3.58,0,0,0,2.85,1.32,4.2,4.2,0,0,0,1.82-.38,4.08,4.08,0,0,0,1.43-1.2l.81.61A4.7,4.7,0,0,1,55.43,303Zm-.23-10.95a3.23,3.23,0,0,0-2.45,1.06,4.9,4.9,0,0,0-1.2,2.86h7v-.14a4.29,4.29,0,0,0-1-2.73A3,3,0,0,0,55.2,292.07Z" transform="translate(-11.11 -7.41)"/><path class="cls-65" d="M66.6,301.94a3.39,3.39,0,0,0,2.25-.76,2.67,2.67,0,0,0,1-2h1.23a3.56,3.56,0,0,1-.66,1.94,4.12,4.12,0,0,1-1.63,1.37,4.89,4.89,0,0,1-2.17.49A4.46,4.46,0,0,1,63,301.43a6.4,6.4,0,0,1-1.34-4.27v-.39a7.3,7.3,0,0,1,.6-3,4.63,4.63,0,0,1,1.73-2,4.75,4.75,0,0,1,2.62-.72,4.49,4.49,0,0,1,3.16,1.14,4.15,4.15,0,0,1,1.32,3H69.83a3.11,3.11,0,0,0-3.25-3,3.22,3.22,0,0,0-2.7,1.25,5.72,5.72,0,0,0-1,3.53v.37a5.55,5.55,0,0,0,1,3.47A3.24,3.24,0,0,0,66.6,301.94Z" transform="translate(-11.11 -7.41)"/><path class="cls-65" d="M75.63,288.21v3H78v1.05H75.63V300a2.42,2.42,0,0,0,.35,1.44,1.34,1.34,0,0,0,1.16.48,8.43,8.43,0,0,0,1-.11l0,1a4.27,4.27,0,0,1-1.38.18,2.29,2.29,0,0,1-1.92-.76,3.63,3.63,0,0,1-.6-2.26v-7.76H72.2v-1.05h2.14v-3Z" transform="translate(-11.11 -7.41)"/><path class="cls-65" d="M92.72,305.71H91.64V287.17h1.08Z" transform="translate(-11.11 -7.41)"/><path class="cls-65" d="M108.58,296.44v6.37h-1.33V287.17h5.33a5.61,5.61,0,0,1,3.85,1.25,4.88,4.88,0,0,1,.06,6.82,5.78,5.78,0,0,1-3.94,1.2Zm0-1.12h4a4.26,4.26,0,0,0,2.94-.91,3.27,3.27,0,0,0,1-2.55,3.4,3.4,0,0,0-1-2.59,4,4,0,0,0-2.85-1h-4.09Z" transform="translate(-11.11 -7.41)"/><path class="cls-65" d="M125.87,292.28a4.79,4.79,0,0,0-.87-.07,3.15,3.15,0,0,0-2,.67,3.68,3.68,0,0,0-1.18,1.95v8H120.5V291.19h1.26l0,1.84a3.42,3.42,0,0,1,3.27-2.06,2.18,2.18,0,0,1,.85.14Z" transform="translate(-11.11 -7.41)"/><path class="cls-65" d="M132.2,303a5,5,0,0,1-2.68-.73,5,5,0,0,1-1.87-2,6.41,6.41,0,0,1-.66-2.93v-.46a6.76,6.76,0,0,1,.65-3,5.12,5.12,0,0,1,1.81-2.11A4.47,4.47,0,0,1,132,291a4.19,4.19,0,0,1,3.36,1.45,5.83,5.83,0,0,1,1.24,3.94v.72h-8.29v.25a4.82,4.82,0,0,0,1.13,3.29,3.6,3.6,0,0,0,2.85,1.32,4.17,4.17,0,0,0,1.82-.38,4,4,0,0,0,1.44-1.2l.8.61A4.67,4.67,0,0,1,132.2,303ZM132,292.07a3.19,3.19,0,0,0-2.44,1.06,4.85,4.85,0,0,0-1.21,2.86h7v-.14a4.24,4.24,0,0,0-1-2.73A3,3,0,0,0,132,292.07Z" transform="translate(-11.11 -7.41)"/><path class="cls-65" d="M146,299.86a1.82,1.82,0,0,0-.77-1.54,5.86,5.86,0,0,0-2.31-.91,10.7,10.7,0,0,1-2.4-.75,3.2,3.2,0,0,1-1.27-1,2.6,2.6,0,0,1-.41-1.48,2.75,2.75,0,0,1,1.15-2.27A4.6,4.6,0,0,1,143,291a4.77,4.77,0,0,1,3.12,1,3.08,3.08,0,0,1,1.18,2.51H146a2.1,2.1,0,0,0-.86-1.7,3.33,3.33,0,0,0-2.15-.67,3.44,3.44,0,0,0-2,.56,1.75,1.75,0,0,0-.76,1.47,1.58,1.58,0,0,0,.64,1.35,6.58,6.58,0,0,0,2.33.87,11.1,11.1,0,0,1,2.53.85,3.22,3.22,0,0,1,1.25,1.09,2.69,2.69,0,0,1,.41,1.53,2.75,2.75,0,0,1-1.19,2.35A5,5,0,0,1,143,303a5.18,5.18,0,0,1-3.3-1,3,3,0,0,1-1.26-2.48h1.29a2.24,2.24,0,0,0,1,1.75,3.89,3.89,0,0,0,2.32.63,3.71,3.71,0,0,0,2.17-.59A1.76,1.76,0,0,0,146,299.86Z" transform="translate(-11.11 -7.41)"/><path class="cls-65" d="M154.7,303a5,5,0,0,1-2.68-.73,4.88,4.88,0,0,1-1.86-2,6.29,6.29,0,0,1-.67-2.93v-.46a6.9,6.9,0,0,1,.65-3,5.27,5.27,0,0,1,1.81-2.11,4.5,4.5,0,0,1,2.52-.77,4.16,4.16,0,0,1,3.35,1.45,5.83,5.83,0,0,1,1.24,3.94v.72h-8.29v.25a4.87,4.87,0,0,0,1.13,3.29,3.62,3.62,0,0,0,2.86,1.32,4.23,4.23,0,0,0,1.82-.38,4.08,4.08,0,0,0,1.43-1.2l.81.61A4.7,4.7,0,0,1,154.7,303Zm-.23-10.95a3.21,3.21,0,0,0-2.45,1.06,5,5,0,0,0-1.21,2.86h7v-.14a4.29,4.29,0,0,0-1-2.73A3,3,0,0,0,154.47,292.07Z" transform="translate(-11.11 -7.41)"/><path class="cls-65" d="M166.94,292.28a4.79,4.79,0,0,0-.87-.07,3.15,3.15,0,0,0-2,.67,3.68,3.68,0,0,0-1.18,1.95v8h-1.28V291.19h1.25l0,1.84a3.42,3.42,0,0,1,3.27-2.06,2.18,2.18,0,0,1,.85.14Z" transform="translate(-11.11 -7.41)"/><path class="cls-65" d="M172.78,301l3.54-9.85h1.32l-4.34,11.62h-1l-4.37-11.62h1.33Z" transform="translate(-11.11 -7.41)"/><path class="cls-65" d="M184.1,303a5,5,0,0,1-2.68-.73,4.94,4.94,0,0,1-1.86-2,6.41,6.41,0,0,1-.67-2.93v-.46a6.9,6.9,0,0,1,.65-3,5.27,5.27,0,0,1,1.81-2.11,4.52,4.52,0,0,1,2.52-.77,4.16,4.16,0,0,1,3.35,1.45,5.84,5.84,0,0,1,1.25,3.94v.72h-8.3v.25a4.83,4.83,0,0,0,1.14,3.29,3.58,3.58,0,0,0,2.85,1.32,4.2,4.2,0,0,0,1.82-.38,4,4,0,0,0,1.43-1.2l.81.61A4.7,4.7,0,0,1,184.1,303Zm-.23-10.95a3.23,3.23,0,0,0-2.45,1.06,4.9,4.9,0,0,0-1.2,2.86h7v-.14a4.29,4.29,0,0,0-1-2.73A3,3,0,0,0,183.87,292.07Z" transform="translate(-11.11 -7.41)"/><path class="cls-65" d="M203,305.71H201.9V287.17H203Z" transform="translate(-11.11 -7.41)"/><path class="cls-65" d="M228.6,297.93a5.59,5.59,0,0,1-1.77,3.78,5.82,5.82,0,0,1-4,1.31,5.52,5.52,0,0,1-3.08-.87,5.71,5.71,0,0,1-2.07-2.46A8.94,8.94,0,0,1,217,296v-2a8.93,8.93,0,0,1,.73-3.69,5.61,5.61,0,0,1,2.1-2.49,5.8,5.8,0,0,1,3.16-.88,5.23,5.23,0,0,1,5.66,5.11h-1.33c-.33-2.66-1.78-4-4.33-4a4.1,4.1,0,0,0-3.39,1.59,6.92,6.92,0,0,0-1.26,4.4V296a7,7,0,0,0,1.23,4.33,4,4,0,0,0,3.32,1.61,4.39,4.39,0,0,0,3.13-1,4.78,4.78,0,0,0,1.3-3Z" transform="translate(-11.11 -7.41)"/><path class="cls-65" d="M230.8,296.83a6.87,6.87,0,0,1,.65-3A4.9,4.9,0,0,1,236,291a4.81,4.81,0,0,1,3.76,1.63,6.25,6.25,0,0,1,1.44,4.31v.27a7,7,0,0,1-.65,3,4.93,4.93,0,0,1-1.83,2.07,5,5,0,0,1-2.7.73,4.78,4.78,0,0,1-3.75-1.62,6.25,6.25,0,0,1-1.45-4.32Zm1.29.35a5.26,5.26,0,0,0,1.08,3.42,3.65,3.65,0,0,0,5.65,0,5.45,5.45,0,0,0,1.08-3.53v-.24a5.91,5.91,0,0,0-.5-2.44,3.87,3.87,0,0,0-1.38-1.71,3.53,3.53,0,0,0-2-.61,3.45,3.45,0,0,0-2.81,1.35,5.44,5.44,0,0,0-1.08,3.52Z" transform="translate(-11.11 -7.41)"/><path class="cls-65" d="M245.06,291.19l0,2a4.54,4.54,0,0,1,1.63-1.63,4.2,4.2,0,0,1,2.16-.57,3.48,3.48,0,0,1,2.78,1,4.78,4.78,0,0,1,.93,3.16v7.63h-1.28v-7.64a3.59,3.59,0,0,0-.66-2.32,2.6,2.6,0,0,0-2.08-.76,3.23,3.23,0,0,0-2.11.75,4.34,4.34,0,0,0-1.36,2v8h-1.28V291.19Z" transform="translate(-11.11 -7.41)"/><path class="cls-65" d="M262.88,299.86a1.85,1.85,0,0,0-.77-1.54,5.92,5.92,0,0,0-2.32-.91,10.7,10.7,0,0,1-2.4-.75,3.2,3.2,0,0,1-1.27-1,2.6,2.6,0,0,1-.41-1.48,2.75,2.75,0,0,1,1.15-2.27,4.64,4.64,0,0,1,2.94-.9,4.81,4.81,0,0,1,3.13,1,3.1,3.1,0,0,1,1.17,2.51h-1.29a2.09,2.09,0,0,0-.85-1.7,3.88,3.88,0,0,0-4.19-.11,1.76,1.76,0,0,0-.77,1.47,1.58,1.58,0,0,0,.64,1.35,6.66,6.66,0,0,0,2.33.87,11.39,11.39,0,0,1,2.54.85,3.29,3.29,0,0,1,1.25,1.09,3,3,0,0,1-.78,3.88,5.06,5.06,0,0,1-3.1.88,5.17,5.17,0,0,1-3.29-1,3,3,0,0,1-1.27-2.48h1.29a2.24,2.24,0,0,0,.95,1.75,3.91,3.91,0,0,0,2.32.63,3.69,3.69,0,0,0,2.17-.59A1.77,1.77,0,0,0,262.88,299.86Z" transform="translate(-11.11 -7.41)"/><path class="cls-65" d="M271.56,303a5,5,0,0,1-4.55-2.76,6.41,6.41,0,0,1-.66-2.93v-.46a6.76,6.76,0,0,1,.65-3,5.12,5.12,0,0,1,1.81-2.11,4.47,4.47,0,0,1,2.51-.77,4.19,4.19,0,0,1,3.36,1.45,5.89,5.89,0,0,1,1.24,3.94v.72h-8.3v.25a4.83,4.83,0,0,0,1.14,3.29,3.58,3.58,0,0,0,2.85,1.32,4.2,4.2,0,0,0,1.82-.38,4,4,0,0,0,1.43-1.2l.81.61A4.69,4.69,0,0,1,271.56,303Zm-.24-10.95a3.19,3.19,0,0,0-2.44,1.06,4.85,4.85,0,0,0-1.21,2.86h7v-.14a4.29,4.29,0,0,0-1-2.73A3,3,0,0,0,271.32,292.07Z" transform="translate(-11.11 -7.41)"/><path class="cls-65" d="M283.79,292.28a4.79,4.79,0,0,0-.87-.07,3.1,3.1,0,0,0-2,.67,3.63,3.63,0,0,0-1.19,1.95v8h-1.28V291.19h1.26l0,1.84A3.42,3.42,0,0,1,283,291a2.14,2.14,0,0,1,.85.14Z" transform="translate(-11.11 -7.41)"/><path class="cls-65" d="M289.64,301l3.53-9.85h1.32l-4.34,11.62h-1l-4.36-11.62h1.32Z" transform="translate(-11.11 -7.41)"/><path class="cls-65" d="M301,303a5,5,0,0,1-2.68-.73,5,5,0,0,1-1.87-2,6.41,6.41,0,0,1-.66-2.93v-.46a6.76,6.76,0,0,1,.65-3,5.12,5.12,0,0,1,1.81-2.11,4.47,4.47,0,0,1,2.51-.77,4.19,4.19,0,0,1,3.36,1.45,5.83,5.83,0,0,1,1.24,3.94v.72H297v.25a4.82,4.82,0,0,0,1.13,3.29,3.6,3.6,0,0,0,2.85,1.32,4.17,4.17,0,0,0,1.82-.38,4,4,0,0,0,1.44-1.2l.8.61A4.67,4.67,0,0,1,301,303Zm-.24-10.95a3.19,3.19,0,0,0-2.44,1.06,4.85,4.85,0,0,0-1.21,2.86h7v-.14a4.24,4.24,0,0,0-1-2.73A3,3,0,0,0,300.72,292.07Z" transform="translate(-11.11 -7.41)"/></svg>